<svg width="18" height="18" viewBox="0 0 18 18" fill="none" xmlns="http://www.w3.org/2000/svg">
<path d="M7.16124 13.1569C7.10973 13.2046 7.06947 13.2607 7.04274 13.322C7.01602 13.3834 7.00335 13.4487 7.00547 13.5143C7.00759 13.5799 7.02446 13.6445 7.0551 13.7044C7.08575 13.7643 7.12957 13.8184 7.18407 13.8635C7.23858 13.9085 7.30269 13.9438 7.37276 13.9672C7.44283 13.9906 7.51747 14.0017 7.59243 13.9998C7.66739 13.9979 7.7412 13.9832 7.80964 13.9564C7.87808 13.9295 7.93982 13.8912 7.99132 13.8435L12.8439 9.34611C12.9442 9.25333 13 9.13049 13 9.00281C13 8.87513 12.9442 8.75229 12.8439 8.65951L7.99132 4.16165C7.94016 4.1129 7.87844 4.07353 7.80974 4.04583C7.74105 4.01814 7.66675 4.00267 7.59117 4.00032C7.51558 3.99796 7.44022 4.00878 7.36945 4.03214C7.29869 4.0555 7.23393 4.09093 7.17894 4.13639C7.12395 4.18184 7.07983 4.2364 7.04913 4.2969C7.01844 4.3574 7.00178 4.42264 7.00014 4.48883C6.99849 4.55501 7.01188 4.62082 7.03954 4.68244C7.0672 4.74405 7.10856 4.80024 7.16124 4.84775L11.6439 9.00281L7.16124 13.1569Z" fill="white"/>
</svg>
