<svg width="28" height="26" viewBox="0 0 28 26" fill="none" xmlns="http://www.w3.org/2000/svg">
<g clip-path="url(#clip0_12473_34212)">
<path d="M3.00001 12.9975C3.00056 10.5858 3.79364 8.24121 5.25719 6.32444C6.72074 4.40766 8.77365 3.02497 11.1 2.38917C13.4263 1.75337 15.8971 1.89968 18.1321 2.80561C20.3671 3.71153 22.2425 5.32685 23.4696 7.40296C24.6967 9.47907 25.2075 11.9009 24.9234 14.2958C24.6393 16.6906 23.5761 18.9257 21.8973 20.6571C20.2186 22.3886 18.0173 23.5203 15.6324 23.8782C13.2475 24.2361 10.811 23.8003 8.69801 22.6379L4.42121 23.9403C4.23045 23.9984 4.02748 24.0035 3.83402 23.9552C3.64055 23.9069 3.46386 23.8068 3.32286 23.6658C3.18185 23.5248 3.08183 23.3481 3.03348 23.1547C2.98514 22.9612 2.9903 22.7582 3.04841 22.5675L4.35081 18.2841C3.46191 16.664 2.99724 14.8454 3.00001 12.9975ZM9.6 11.8975C9.6 12.1892 9.7159 12.469 9.92219 12.6753C10.1285 12.8816 10.4083 12.9975 10.7 12.9975H17.3C17.5917 12.9975 17.8715 12.8816 18.0778 12.6753C18.2841 12.469 18.4 12.1892 18.4 11.8975C18.4 11.6057 18.2841 11.326 18.0778 11.1197C17.8715 10.9134 17.5917 10.7975 17.3 10.7975H10.7C10.4083 10.7975 10.1285 10.9134 9.92219 11.1197C9.7159 11.326 9.6 11.6057 9.6 11.8975ZM10.7 15.1975C10.4083 15.1975 10.1285 15.3134 9.92219 15.5197C9.7159 15.7259 9.6 16.0057 9.6 16.2975C9.6 16.5892 9.7159 16.869 9.92219 17.0753C10.1285 17.2816 10.4083 17.3975 10.7 17.3975H15.1C15.3917 17.3975 15.6715 17.2816 15.8778 17.0753C16.0841 16.869 16.2 16.5892 16.2 16.2975C16.2 16.0057 16.0841 15.7259 15.8778 15.5197C15.6715 15.3134 15.3917 15.1975 15.1 15.1975H10.7Z" fill="#C2D24B"/>
</g>
<defs>
<clipPath id="clip0_12473_34212">
<rect width="28" height="26" rx="8" fill="white"/>
</clipPath>
</defs>
</svg>
